<?xml version="1.0" encoding="iso-8859-1"?>
<!-- Generator: Adobe Illustrator 19.0.0, SVG Export Plug-In . SVG Version: 6.00 Build 0)  -->
<svg version="1.1" id="Layer_1" xmlns="http://www.w3.org/2000/svg" xmlns:xlink="http://www.w3.org/1999/xlink" x="0px" y="0px"
	 viewBox="0 0 512 512" style="enable-background:new 0 0 512 512;" xml:space="preserve">
<g transform="translate(1 1)">
	<path style="fill:#E2E3E5;" d="M141.222,340.57l130.844,120.415c13.274,7.585,30.341-1.896,30.341-18.015V67.504
		c0-16.119-17.067-25.6-30.341-18.015L141.222,160.422V340.57z"/>
	<path style="fill:#FFFFFF;" d="M8.481,160.422V340.57h104.296l130.844,120.415c13.274,7.585,30.341-1.896,30.341-18.015V67.504
		c0-16.119-17.067-25.6-30.341-18.015L112.778,160.422H8.481z"/>
	<path style="fill:#CCCCCC;" d="M112.778,340.57l130.844,120.415c13.274,7.585,30.341-1.896,30.341-18.015V67.504
		c0-16.119-17.067-25.6-30.341-18.015L112.778,160.422V340.57z"/>
	<path style="fill:#E2E3E5;" d="M36.926,160.422V340.57h75.852l102.4,94.815c13.274,7.585,30.341,23.704,30.341,7.585V67.504
		c0-16.119-17.067,0-30.341,7.585l-102.4,85.333H36.926z"/>
	<g>
		<path style="fill:#B6B6B6;" d="M501.519,331.089c-2.844,0-4.741-0.948-6.637-2.844L343.178,176.541
			c-3.793-3.793-3.793-9.481,0-13.274s9.481-3.793,13.274,0L508.156,314.97c3.793,3.793,3.793,9.481,0,13.274
			C506.259,330.141,504.363,331.089,501.519,331.089z"/>
		<path style="fill:#B6B6B6;" d="M349.815,331.089c-2.844,0-4.741-0.948-6.637-2.844c-3.793-3.793-3.793-9.482,0-13.274
			l151.704-151.704c3.793-3.793,9.481-3.793,13.274,0c3.793,3.793,3.793,9.481,0,13.274L356.452,328.244
			C354.556,330.141,352.659,331.089,349.815,331.089z"/>
		<path style="fill:#B6B6B6;" d="M254.052,473.311c-4.741,0-10.43-0.948-15.17-3.793c-0.948,0-0.948-0.948-1.896-0.948l-128-118.519
			H8.481l0,0c-2.844,0-4.741-0.948-6.637-2.844C-0.052,345.311-1,343.415-1,340.57V160.422c0-5.689,3.793-9.481,9.481-9.481h100.504
			L237.933,41.904l0.948-0.948c9.481-5.689,19.911-5.689,29.393,0s15.17,15.17,15.17,26.548v376.415
			c0,11.378-5.689,20.859-15.17,26.548C263.533,472.363,258.793,473.311,254.052,473.311z M249.311,453.4
			c3.793,1.896,7.585,0.948,9.481,0c3.793-1.896,5.689-5.689,5.689-9.481V67.504c0-3.793-1.896-7.585-5.689-9.481
			c-1.896-0.948-5.689-2.844-9.481,0L118.467,168.007c-0.948,0.948-3.793,1.896-5.689,1.896H17.963v161.185h94.815l0,0
			c2.844,0,4.741,0.948,6.637,2.844L249.311,453.4z"/>
		<path style="fill:#B6B6B6;" d="M112.778,217.311c-5.689,0-9.481-3.793-9.481-9.481v-47.407c0-5.689,3.793-9.481,9.481-9.481
			s9.481,3.793,9.481,9.481v47.407C122.259,213.519,118.467,217.311,112.778,217.311z"/>
		<path style="fill:#B6B6B6;" d="M112.778,350.052c-5.689,0-9.481-3.793-9.481-9.481v-47.407c0-5.689,3.793-9.481,9.481-9.481
			s9.481,3.793,9.481,9.481v47.407C122.259,346.259,118.467,350.052,112.778,350.052z"/>
	</g>
</g>
<g>
</g>
<g>
</g>
<g>
</g>
<g>
</g>
<g>
</g>
<g>
</g>
<g>
</g>
<g>
</g>
<g>
</g>
<g>
</g>
<g>
</g>
<g>
</g>
<g>
</g>
<g>
</g>
<g>
</g>
</svg>
